<svg viewBox="229.95000000000005 255.5 651.525 638.75" fill="none" xmlns="http://www.w3.org/2000/svg" xmlns:xlink="http://www.w3.org/1999/xlink" overflow="visible" width="651.525px" height="638.75px"><g id="Master/Stickers/Schedule Meeting"><g id="Group 3"><g id="Group 6"><g id="Group Copy"><path id="Stroke 42" fill-rule="evenodd" clip-rule="evenodd" d="M336.799 402H369.224C412.191 402 447.023 437.248 447.023 480.73V557.327C447.023 558.506 446.079 559.462 444.914 559.462H336.799C293.832 559.462 259 524.212 259 480.73C259 437.248 293.832 402 336.799 402ZM442.805 480.73C442.805 440.017 410.517 406.937 370.441 406.279L369.224 406.269H336.799C296.162 406.269 263.219 439.606 263.219 480.73C263.219 521.854 296.162 555.192 336.799 555.192L442.803 555.192L442.805 480.73Z" fill="black"/><path id="Stroke 43" d="M383.37 456.769C384.54 456.769 385.488 457.919 385.488 459.337C385.488 460.671 384.648 461.768 383.574 461.892L383.37 461.904H324.363C323.193 461.904 322.244 460.754 322.244 459.337C322.244 458.002 323.084 456.905 324.159 456.781L324.363 456.769H383.37Z" fill="black"/><path id="Stroke 44" d="M383.37 494.423C384.54 494.423 385.488 495.573 385.488 496.99C385.488 498.325 384.648 499.422 383.574 499.546L383.37 499.558H324.363C323.193 499.558 322.244 498.408 322.244 496.99C322.244 495.656 323.084 494.559 324.159 494.435L324.363 494.423H383.37Z" fill="black"/><path id="Fill 45" fill-rule="evenodd" clip-rule="evenodd" d="M368.396 669H476.981C518.965 669 553 634.9 553 592.836C553 550.772 518.965 516.673 476.981 516.673H444.415C402.431 516.673 368.396 550.772 368.396 592.836V669Z" fill="black"/><path id="Fill 46" fill-rule="evenodd" clip-rule="evenodd" d="M440.186 591.981C440.186 597.653 435.594 602.25 429.93 602.25C424.266 602.25 419.674 597.653 419.674 591.981C419.674 586.309 424.266 581.712 429.93 581.712C435.594 581.712 440.186 586.309 440.186 591.981" fill="white"/><path id="Fill 47" fill-rule="evenodd" clip-rule="evenodd" d="M472.663 591.981C472.663 597.653 468.073 602.25 462.406 602.25C456.742 602.25 452.151 597.653 452.151 591.981C452.151 586.309 456.742 581.712 462.406 581.712C468.073 581.712 472.663 586.309 472.663 591.981" fill="white"/><path id="Fill 48" fill-rule="evenodd" clip-rule="evenodd" d="M501.721 591.981C501.721 597.653 497.13 602.25 491.465 602.25C485.801 602.25 481.209 597.653 481.209 591.981C481.209 586.309 485.801 581.712 491.465 581.712C497.13 581.712 501.721 586.309 501.721 591.981" fill="white"/></g><g id="Group 2"><path id="Stroke 49" d="M870.325 375.012V377.56V447.882C870.325 449.212 869.31 450.305 868.012 450.43L867.766 450.441H580.559C579.146 450.441 578 449.295 578 447.882C578 446.551 579.015 445.458 580.313 445.334L580.559 445.322L865.206 445.321V380.119L580.559 380.119C579.229 380.119 578.136 379.104 578.012 377.806L578 377.56C578 376.229 579.015 375.136 580.313 375.012L580.559 375L870.325 375.012Z" fill="black"/><path id="Stroke 50" d="M867.766 445.322C869.097 445.322 870.19 446.337 870.314 447.635L870.326 447.881V715.097C870.326 716.428 869.311 717.521 868.013 717.645L867.766 717.657H657.033C655.619 717.657 654.473 716.511 654.473 715.097C654.473 713.767 655.488 712.673 656.786 712.549L657.033 712.537L865.206 712.537L865.207 447.881C865.207 446.551 866.222 445.457 867.52 445.333L867.766 445.322Z" fill="black"/><path id="Stroke 51" d="M816.478 399.069C817.415 398.132 818.898 398.073 819.903 398.893L820.097 399.069L841.901 420.874C842.9 421.874 842.9 423.494 841.901 424.494C840.964 425.431 839.481 425.49 838.476 424.67L838.281 424.494L816.478 402.689C815.478 401.689 815.478 400.068 816.478 399.069Z" fill="black"/><path id="Stroke 52" d="M838.282 399.069C839.281 398.069 840.902 398.069 841.901 399.069C842.838 400.006 842.897 401.489 842.077 402.494L841.901 402.689L820.098 424.494C819.098 425.494 817.478 425.494 816.478 424.494C815.541 423.557 815.483 422.074 816.302 421.068L816.478 420.874L838.282 399.069Z" fill="black"/><path id="Fill 53" fill-rule="evenodd" clip-rule="evenodd" d="M788.947 521.663C788.947 527.875 783.911 532.91 777.7 532.91C771.489 532.91 766.452 527.875 766.452 521.663C766.452 515.45 771.489 510.414 777.7 510.414C783.911 510.414 788.947 515.45 788.947 521.663" fill="black"/><path id="Fill 54" fill-rule="evenodd" clip-rule="evenodd" d="M732.216 521.663C732.216 527.875 727.181 532.91 720.97 532.91C714.759 532.91 709.722 527.875 709.722 521.663C709.722 515.45 714.759 510.414 720.97 510.414C727.181 510.414 732.216 515.45 732.216 521.663" fill="black"/><path id="Fill 55" fill-rule="evenodd" clip-rule="evenodd" d="M675.486 521.663C675.486 527.875 670.45 532.91 664.239 532.91C658.028 532.91 652.991 527.875 652.991 521.663C652.991 515.45 658.028 510.414 664.239 510.414C670.45 510.414 675.486 515.45 675.486 521.663" fill="black"/><path id="Fill 56" fill-rule="evenodd" clip-rule="evenodd" d="M788.947 577.498C788.947 583.711 783.911 588.745 777.7 588.745C771.489 588.745 766.452 583.711 766.452 577.498C766.452 571.285 771.489 566.251 777.7 566.251C783.911 566.251 788.947 571.285 788.947 577.498" fill="black"/><path id="Fill 57" fill-rule="evenodd" clip-rule="evenodd" d="M732.216 577.498C732.216 583.711 727.181 588.745 720.97 588.745C714.759 588.745 709.722 583.711 709.722 577.498C709.722 571.285 714.759 566.251 720.97 566.251C727.181 566.251 732.216 571.285 732.216 577.498" fill="black"/><path id="Fill 58" fill-rule="evenodd" clip-rule="evenodd" d="M675.486 577.498C675.486 583.711 670.45 588.745 664.239 588.745C658.028 588.745 652.991 583.711 652.991 577.498C652.991 571.285 658.028 566.251 664.239 566.251C670.45 566.251 675.486 571.285 675.486 577.498" fill="black"/><path id="Fill 59" fill-rule="evenodd" clip-rule="evenodd" d="M788.947 633.333C788.947 639.547 783.911 644.582 777.7 644.582C771.489 644.582 766.452 639.547 766.452 633.333C766.452 627.122 771.489 622.086 777.7 622.086C783.911 622.086 788.947 627.122 788.947 633.333" fill="black"/><path id="Fill 60" fill-rule="evenodd" clip-rule="evenodd" d="M732.216 633.333C732.216 639.547 727.181 644.582 720.97 644.582C714.759 644.582 709.722 639.547 709.722 633.333C709.722 627.122 714.759 622.086 720.97 622.086C727.181 622.086 732.216 627.122 732.216 633.333" fill="black"/></g><g id="Group"><path id="Stroke 61" d="M660.578 822C665.213 822 669.049 823.368 672.491 825.998C674.954 827.88 676.616 829.718 679.923 833.913L680.954 835.217C687.099 842.914 690.568 845.382 697.3 845.382C698.239 845.382 699 846.167 699 847.135C699 848.104 698.239 848.889 697.3 848.889C692.665 848.889 688.829 847.521 685.387 844.891L684.904 844.515C682.695 842.754 681.041 840.891 677.955 836.976L676.924 835.672C670.779 827.974 667.309 825.507 660.578 825.507C653.846 825.507 650.376 827.974 644.231 835.672L642.56 837.784C639.668 841.416 638.067 843.135 635.768 844.891C632.326 847.521 628.49 848.889 623.855 848.889C619.22 848.889 615.384 847.521 611.942 844.891L611.46 844.515C609.251 842.753 607.597 840.891 604.511 836.976L604.175 836.548C597.589 828.161 594.117 825.507 587.136 825.507C580.28 825.507 576.808 828.067 570.447 836.104L569.12 837.784C566.228 841.416 564.628 843.135 562.329 844.891C558.887 847.521 555.052 848.889 550.417 848.889C545.782 848.889 541.946 847.521 538.505 844.891L538.022 844.515C535.813 842.753 534.16 840.891 531.073 836.976L530.387 836.104L529.704 835.249C523.769 827.884 520.305 825.507 513.7 825.507C512.761 825.507 512 824.722 512 823.754C512 822.785 512.761 822 513.7 822C518.334 822 522.169 823.368 525.611 825.998L526.094 826.374C528.224 828.072 529.837 829.865 532.717 833.501L533.378 834.34C539.964 842.728 543.437 845.382 550.417 845.382C557.148 845.382 560.617 842.915 566.761 835.218L568.768 832.684C571.451 829.338 573.015 827.685 575.223 825.998C578.665 823.368 582.501 822 587.136 822C591.771 822 595.607 823.368 599.049 825.998C601.512 827.88 603.173 829.718 606.48 833.913L607.51 835.217C613.655 842.915 617.124 845.382 623.855 845.382C630.587 845.382 634.056 842.914 640.201 835.217L642.177 832.723C644.879 829.35 646.447 827.692 648.664 825.998C652.106 823.368 655.942 822 660.578 822Z" fill="black"/><path id="Stroke 62" d="M660.578 861.111C665.213 861.111 669.049 862.479 672.491 865.109L672.974 865.485C674.947 867.058 676.476 868.711 678.978 871.834L680.954 874.328C687.099 882.026 690.568 884.493 697.3 884.493C698.239 884.493 699 885.278 699 886.246C699 887.215 698.239 888 697.3 888C692.665 888 688.829 886.632 685.387 884.002L684.904 883.626C682.695 881.865 681.041 880.002 677.955 876.087L677.618 875.66C671.031 867.272 667.559 864.618 660.578 864.618C653.721 864.618 650.249 867.178 643.887 875.216L642.56 876.895C639.668 880.527 638.067 882.246 635.768 884.002C632.326 886.632 628.49 888 623.855 888C619.22 888 615.384 886.632 611.942 884.002L611.46 883.626C609.251 881.865 607.597 880.002 604.511 876.087L604.175 875.659C597.589 867.272 594.117 864.618 587.136 864.618C580.28 864.618 576.808 867.178 570.447 875.216L569.12 876.895C566.228 880.527 564.628 882.246 562.329 884.002C558.887 886.632 555.052 888 550.417 888C545.782 888 541.946 886.632 538.505 884.002L538.022 883.626C535.813 881.864 534.16 880.002 531.073 876.087L530.387 875.215L529.704 874.36C523.769 866.995 520.305 864.618 513.7 864.618C512.761 864.618 512 863.833 512 862.865C512 861.896 512.761 861.111 513.7 861.111C518.334 861.111 522.169 862.479 525.611 865.109L526.094 865.485C528.224 867.183 529.837 868.976 532.717 872.612L533.378 873.451C539.964 881.839 543.437 884.493 550.417 884.493C557.148 884.493 560.617 882.026 566.761 874.329L568.768 871.795C571.451 868.449 573.015 866.796 575.223 865.109C578.665 862.479 582.501 861.111 587.136 861.111C591.771 861.111 595.607 862.479 599.049 865.109L599.531 865.485C601.74 867.247 603.393 869.109 606.48 873.024L607.51 874.329C613.655 882.026 617.124 884.493 623.855 884.493C630.587 884.493 634.056 882.026 640.201 874.328L642.177 871.834C644.879 868.461 646.447 866.803 648.664 865.109C652.106 862.479 655.942 861.111 660.578 861.111Z" fill="black"/></g></g><g id="Group 5"><g id="Group 2_2"><path id="Rectangle (Stroke)" fill-rule="evenodd" clip-rule="evenodd" d="M554 261.7H257C246.341 261.7 237.7 270.341 237.7 281V779C237.7 789.659 246.341 798.3 257 798.3H554C564.659 798.3 573.3 789.659 573.3 779V281C573.3 270.341 564.659 261.7 554 261.7ZM257 259C244.85 259 235 268.85 235 281V779C235 791.15 244.85 801 257 801H554C566.15 801 576 791.15 576 779V281C576 268.85 566.15 259 554 259H257Z" fill="black"/><path id="Stroke 46" d="M425.775 286.757C426.702 286.757 427.452 287.41 427.452 288.214C427.452 288.972 426.787 289.594 425.937 289.665L425.775 289.671H382.419C381.493 289.671 380.742 289.019 380.742 288.214C380.742 287.457 381.407 286.835 382.258 286.764L382.419 286.757H425.775Z" fill="black"/><path id="Stroke 46_2" d="M425.775 772.318C426.702 772.318 427.452 772.97 427.452 773.775C427.452 774.532 426.787 775.155 425.937 775.225L425.775 775.232H382.419C381.493 775.232 380.742 774.579 380.742 773.775C380.742 773.017 381.407 772.395 382.258 772.324L382.419 772.318H425.775Z" fill="black"/></g></g></g></g></svg>