<svg viewBox="18.525000000000006 12.679190751445077 213.0375 185.54913294797691" fill="none" xmlns="http://www.w3.org/2000/svg" xmlns:xlink="http://www.w3.org/1999/xlink" overflow="visible" width="213.0375px" height="185.54913294797691px"><g id="Master/Backgrounds/Squares"><g id="Blush/Backgrounds/Squares"><g id="Texture Backgrounds" transform="scale(1 1)"><g id="Texture Backgrounds/Spots 1"><g id="Group 16"><path id="Fill 1" opacity="0.5" fill-rule="evenodd" clip-rule="evenodd" d="M33.3968 30L20 40.7317L30.2481 53L46 46.1058L33.3968 30Z" fill="#805D93"/><path id="Fill 2" opacity="0.5" fill-rule="evenodd" clip-rule="evenodd" d="M98.4958 16L88 30.1249L94.6467 36L109 30.1249L98.4958 16Z" fill="#805D93"/><path id="Fill 3" opacity="0.5" fill-rule="evenodd" clip-rule="evenodd" d="M162.496 36L152 46.4507L162.496 59L173 47.5042L162.496 36Z" fill="#805D93"/><path id="Fill 4" opacity="0.5" fill-rule="evenodd" clip-rule="evenodd" d="M200 99.2416L206.737 110L219 104.021L207.264 88L200 99.2416Z" fill="#805D93"/><path id="Fill 4 Copy" opacity="0.5" fill-rule="evenodd" clip-rule="evenodd" d="M210 37.2416L216.737 48L229 42.0212L217.264 26L210 37.2416Z" fill="#805D93"/><path id="Fill 5" opacity="0.5" fill-rule="evenodd" clip-rule="evenodd" d="M147.303 123L137 128.442L140.168 144L158 141.667L147.303 123Z" fill="#805D93"/><path id="Fill 6" opacity="0.5" fill-rule="evenodd" clip-rule="evenodd" d="M109 101.3L90.6875 106L88 92.1811L98.4958 88L109 101.3Z" fill="#805D93"/><path id="Fill 7" opacity="0.5" fill-rule="evenodd" clip-rule="evenodd" d="M44 114L35.5044 100H22V110.562L44 114Z" fill="#805D93"/><path id="Fill 8" opacity="0.5" fill-rule="evenodd" clip-rule="evenodd" d="M32.1098 165L48 184.982L25.2838 187L19 176.004L21.3758 165H32.1098Z" fill="#805D93"/><path id="Fill 12" opacity="0.5" fill-rule="evenodd" clip-rule="evenodd" d="M175.05 173L184 190.2L177.842 195L165.717 193.397L163 184.004L175.05 173Z" fill="#805D93"/><path id="Fill 14" opacity="0.5" fill-rule="evenodd" clip-rule="evenodd" d="M208.883 155.459L206 167.801L210.892 176L218.523 170.497L224 167.801L215.784 151L208.883 155.459Z" fill="#805D93"/><path id="Fill 15" opacity="0.5" fill-rule="evenodd" clip-rule="evenodd" d="M85 160.679L96.8155 154L108 168.705L98.8803 177H89.8671L85 160.679Z" fill="#805D93"/></g></g></g></g></g></svg>